<?xml version="1.0" encoding="UTF-8" standalone="no"?>
<svg
   xmlns:a="http://ns.adobe.com/AdobeSVGViewerExtensions/3.0/"
   xmlns:dc="http://purl.org/dc/elements/1.1/"
   xmlns:cc="http://creativecommons.org/ns#"
   xmlns:rdf="http://www.w3.org/1999/02/22-rdf-syntax-ns#"
   xmlns:svg="http://www.w3.org/2000/svg"
   xmlns="http://www.w3.org/2000/svg"
   xmlns:xlink="http://www.w3.org/1999/xlink"
   xmlns:sodipodi="http://sodipodi.sourceforge.net/DTD/sodipodi-0.dtd"
   xmlns:inkscape="http://www.inkscape.org/namespaces/inkscape"
   width="680"
   height="368"
   id="svg2"
   version="1.1"
   inkscape:version="0.48.3.1 r9886"
   sodipodi:docname="BaseStationBlockDiagram.svg">
  <metadata
     id="metadata462">
    <rdf:RDF>
      <cc:Work
         rdf:about="">
        <dc:format>image/svg+xml</dc:format>
        <dc:type
           rdf:resource="http://purl.org/dc/dcmitype/StillImage" />
        <dc:title></dc:title>
      </cc:Work>
    </rdf:RDF>
  </metadata>
  <sodipodi:namedview
     pagecolor="#ffffff"
     bordercolor="#666666"
     borderopacity="1"
     objecttolerance="10"
     gridtolerance="10"
     guidetolerance="10"
     inkscape:pageopacity="0"
     inkscape:pageshadow="2"
     inkscape:window-width="1680"
     inkscape:window-height="1001"
     id="namedview460"
     showgrid="false"
     inkscape:zoom="1.0617647"
     inkscape:cx="438.38377"
     inkscape:cy="133.38951"
     inkscape:window-x="0"
     inkscape:window-y="29"
     inkscape:window-maximized="1"
     inkscape:current-layer="svg2" />
  <g
     transform="translate(22.25,21.75) rotate(0 223.75 163.25)"
     id="g6">
    <defs
       id="defs8">
      <linearGradient
         id="g0"
         x1="50%"
         y1="-25%"
         x2="50%"
         y2="100%">
        <stop
           stop-color="white"
           offset="0%"
           id="stop11" />
        <stop
           stop-color="#336699"
           offset="100%"
           id="stop13" />
      </linearGradient>
    </defs>
    <g
       transform="translate(4.0,4.0)"
       id="g15">
      <rect
         width="447.5"
         height="326.5"
         stroke="#A8A8A8"
         stroke-width="0"
         stroke-opacity=".6"
         fill-opacity=".6"
         fill="#A8A8A8"
         id="rect17" />
    </g>
    <rect
       width="447.5"
       height="326.5"
       stroke="#333333"
       stroke-width="2"
       style="fill:url(#g0)"
       id="rect19" />
    <g
       id="g21" />
  </g>
  <g
     transform="translate(178.5,64.375) rotate(0 67.5 132.625)"
     id="g23">
    <defs
       id="defs25">
      <linearGradient
         id="g1"
         x1="50%"
         y1="-25%"
         x2="50%"
         y2="100%">
        <stop
           stop-color="white"
           offset="0%"
           id="stop28" />
        <stop
           stop-color="#d1d1d1"
           offset="100%"
           id="stop30" />
      </linearGradient>
    </defs>
    <g
       transform="translate(4.0,4.0)"
       id="g32">
      <rect
         width="135.0"
         height="265.25"
         stroke="#A8A8A8"
         stroke-width="0"
         stroke-opacity=".6"
         fill-opacity=".6"
         fill="#A8A8A8"
         id="rect34" />
    </g>
    <rect
       width="135.0"
       height="265.25"
       stroke="#333333"
       stroke-width="2"
       style="fill:url(#g1)"
       id="rect36" />
    <g
       transform="translate(0.0,129.625)"
       id="g38">
      <text
         x="67.5"
         style="text-anchor: middle"
         y="-2.0"
         id="text40">
        <tspan
           xml:space="preserve"
           font-size="12"
           font-family="Arial"
           fill="#000000"
           id="tspan42">Raspberry Pi</tspan>      </text>
      <text
         x="67.5"
         style="text-anchor: middle"
         y="12.8"
         id="text44">
        <tspan
           xml:space="preserve"
           font-size="12"
           font-family="Arial"
           fill="#000000"
           id="tspan46">Dev. Board</tspan>      </text>
    </g>
  </g>
  <g
     transform="translate(41.5,111.5) rotate(0 36.5 37.5)"
     id="g48">
    <defs
       id="defs50">
      <linearGradient
         id="g2"
         x1="50%"
         y1="-25%"
         x2="50%"
         y2="100%">
        <stop
           stop-color="white"
           offset="0%"
           id="stop53" />
        <stop
           stop-color="#d1d1d1"
           offset="100%"
           id="stop55" />
      </linearGradient>
    </defs>
    <g
       transform="translate(4.0,4.0)"
       id="g57">
      <rect
         width="73.0"
         height="75.0"
         stroke="#A8A8A8"
         stroke-width="0"
         stroke-opacity=".6"
         fill-opacity=".6"
         fill="#A8A8A8"
         id="rect59" />
    </g>
    <rect
       width="73.0"
       height="75.0"
       stroke="#333333"
       stroke-width="2"
       style="fill:url(#g2)"
       id="rect61" />
    <g
       transform="translate(0.0,34.5)"
       id="g63">
      <text
         x="36.5"
         style="text-anchor: middle"
         y="-2.0"
         id="text65">
        <tspan
           xml:space="preserve"
           font-size="12"
           font-family="Arial"
           fill="#000000"
           id="tspan67">ZigBee</tspan>      </text>
      <text
         x="36.5"
         style="text-anchor: middle"
         y="12.8"
         id="text69">
        <tspan
           xml:space="preserve"
           font-size="12"
           font-family="Arial"
           fill="#000000"
           id="tspan71">Transceiver</tspan>      </text>
    </g>
  </g>
  <g
     transform="translate(379.0,107.5) rotate(0 36.0 37.5)"
     id="g73">
    <defs
       id="defs75">
      <linearGradient
         id="g3"
         x1="50%"
         y1="-25%"
         x2="50%"
         y2="100%">
        <stop
           stop-color="white"
           offset="0%"
           id="stop78" />
        <stop
           stop-color="#d1d1d1"
           offset="100%"
           id="stop80" />
      </linearGradient>
    </defs>
    <g
       transform="translate(4.0,4.0)"
       id="g82">
      <rect
         width="72.0"
         height="75.0"
         stroke="#A8A8A8"
         stroke-width="0"
         stroke-opacity=".6"
         fill-opacity=".6"
         fill="#A8A8A8"
         id="rect84" />
    </g>
    <rect
       width="72.0"
       height="75.0"
       stroke="#333333"
       stroke-width="2"
       style="fill:url(#g3)"
       id="rect86" />
    <g
       transform="translate(0.0,34.5)"
       id="g88">
      <text
         x="36.0"
         style="text-anchor: middle"
         y="-2.0"
         id="text90">
        <tspan
           xml:space="preserve"
           font-size="12"
           font-family="Arial"
           fill="#000000"
           id="tspan92">WiFi</tspan>      </text>
      <text
         x="36.0"
         style="text-anchor: middle"
         y="12.8"
         id="text94">
        <tspan
           xml:space="preserve"
           font-size="12"
           font-family="Arial"
           fill="#000000"
           id="tspan96">Transceiver</tspan>      </text>
    </g>
  </g>
  <g
     transform="translate(114.5,149.0)"
     id="g98">
    <path
       d="M3.0,0.0 L31.25,0.0 L31.25,0.0 L59.5,0.0 "
       stroke-dasharray="23, 0"
       fill="none"
       stroke="#000000"
       stroke-width="2"
       id="path100" />
    <g
       transform="translate(0.0,0.0) rotate(0.0)"
       id="g102">
      <path
         d="M9.0,-5.0 L2.0,0 L9.0,5.0 M0,0z"
         fill="none"
         stroke="#000000"
         stroke-width="2.0"
         id="path104" />
    </g>
    <g
       transform="translate(62.5,0.0) rotate(180.0)"
       id="g106">
      <path
         d="M9.0,-5.0 L2.0,0 L9.0,5.0 M0,0z"
         fill="none"
         stroke="#000000"
         stroke-width="2.0"
         id="path108" />
    </g>
  </g>
  <g
     transform="translate(313.5,144.0)"
     id="g110">
    <path
       d="M3.0,0.0 L32.75,0.0 L32.75,0.0 L62.5,0.0 "
       stroke-dasharray="23, 0"
       fill="none"
       stroke="#000000"
       stroke-width="2"
       id="path112" />
    <g
       transform="translate(0.0,0.0) rotate(0.0)"
       id="g114">
      <path
         d="M9.0,-5.0 L2.0,0 L9.0,5.0 M0,0z"
         fill="none"
         stroke="#000000"
         stroke-width="2.0"
         id="path116" />
    </g>
    <g
       transform="translate(65.5,0.0) rotate(180.0)"
       id="g118">
      <path
         d="M9.0,-5.0 L2.0,0 L9.0,5.0 M0,0z"
         fill="none"
         stroke="#000000"
         stroke-width="2.0"
         id="path120" />
    </g>
  </g>
  <g
     transform="translate(71.0,130.5) rotate(0 75.0 12.5)"
     id="g122">
    <g
       transform="translate(0.0,17.5)"
       id="g124">
      <text
         x="75.0"
         style="text-anchor: middle"
         y="-2.0"
         id="text126">
        <tspan
           xml:space="preserve"
           font-size="12"
           font-family="Arial"
           fill="#000000"
           id="tspan128">UART</tspan>      </text>
    </g>
  </g>
  <g
     transform="translate(322.5,127.5) rotate(0 22.5 7.5)"
     id="g130">
    <g
       transform="translate(0.0,12.5)"
       id="g132">
      <text
         x="22.5"
         style="text-anchor: middle"
         y="-2.0"
         id="text134">
        <tspan
           xml:space="preserve"
           font-size="12"
           font-family="Arial"
           fill="#000000"
           id="tspan136">USB</tspan>      </text>
    </g>
  </g>
  <defs
     id="defs138">
    <linearGradient
       gradientUnits="userSpaceOnUse"
       id="SVGIDlaptop_1_"
       x1="1.0244"
       x2="87.7295"
       xlink:actuate="onLoad"
       xlink:show="other"
       xlink:type="simple"
       y1="63.3359"
       y2="63.3359">
      <stop
         offset="0"
         style="stop-color:#D2D2D2"
         id="stop141" />
      <stop
         offset="1"
         style="stop-color:#4B4B4B"
         id="stop143" />
      <a:midPointStop
         offset="0"
         style="stop-color:#D2D2D2" />
      <a:midPointStop
         offset="0.5"
         style="stop-color:#D2D2D2" />
      <a:midPointStop
         offset="1"
         style="stop-color:#4B4B4B" />
    </linearGradient>
    <linearGradient
       gradientTransform="matrix(-1 0 0 1 101.9824 0)"
       gradientUnits="userSpaceOnUse"
       id="SVGIDlaptop_2_"
       x1="48.2324"
       x2="66.1064"
       xlink:actuate="onLoad"
       xlink:show="other"
       xlink:type="simple"
       y1="50.8892"
       y2="75.7486">
      <stop
         offset="0"
         style="stop-color:#616161"
         id="stop146" />
      <stop
         offset="0.4986"
         style="stop-color:#A1A1A1"
         id="stop148" />
      <stop
         offset="1"
         style="stop-color:#DEDEDE"
         id="stop150" />
      <a:midPointStop
         offset="0"
         style="stop-color:#616161" />
      <a:midPointStop
         offset="0.4847"
         style="stop-color:#616161" />
      <a:midPointStop
         offset="1"
         style="stop-color:#DEDEDE" />
    </linearGradient>
    <linearGradient
       gradientTransform="matrix(-1 0 0 1 101.9824 0)"
       gradientUnits="userSpaceOnUse"
       id="SVGIDlaptop_3_"
       x1="57.5791"
       x2="78.3447"
       xlink:actuate="onLoad"
       xlink:show="other"
       xlink:type="simple"
       y1="68.2632"
       y2="68.2632">
      <stop
         offset="0"
         style="stop-color:#FFFFFF"
         id="stop153" />
      <stop
         offset="0.4818"
         style="stop-color:#FDFDFD"
         id="stop155" />
      <stop
         offset="0.6553"
         style="stop-color:#F6F6F6"
         id="stop157" />
      <stop
         offset="0.779"
         style="stop-color:#EBEBEB"
         id="stop159" />
      <stop
         offset="0.879"
         style="stop-color:#DADADA"
         id="stop161" />
      <stop
         offset="0.9637"
         style="stop-color:#C4C4C4"
         id="stop163" />
      <stop
         offset="1"
         style="stop-color:#B8B8B8"
         id="stop165" />
      <a:midPointStop
         offset="0"
         style="stop-color:#FFFFFF" />
      <a:midPointStop
         offset="0.87"
         style="stop-color:#FFFFFF" />
      <a:midPointStop
         offset="1"
         style="stop-color:#B8B8B8" />
    </linearGradient>
    <linearGradient
       gradientTransform="matrix(-1 0 0 1 101.9824 0)"
       gradientUnits="userSpaceOnUse"
       id="SVGIDlaptop_4_"
       x1="57.835"
       x2="78.124"
       xlink:actuate="onLoad"
       xlink:show="other"
       xlink:type="simple"
       y1="68.4165"
       y2="68.4165">
      <stop
         offset="0.0061"
         style="stop-color:#B8B8B8"
         id="stop168" />
      <stop
         offset="0.5179"
         style="stop-color:#909090"
         id="stop170" />
      <stop
         offset="1"
         style="stop-color:#6E6E6E"
         id="stop172" />
      <a:midPointStop
         offset="0.0061"
         style="stop-color:#B8B8B8" />
      <a:midPointStop
         offset="0.4724"
         style="stop-color:#B8B8B8" />
      <a:midPointStop
         offset="1"
         style="stop-color:#6E6E6E" />
    </linearGradient>
    <linearGradient
       gradientTransform="matrix(-1 0 0 1 101.9824 0)"
       gradientUnits="userSpaceOnUse"
       id="SVGIDlaptop_5_"
       x1="41.3965"
       x2="42.6358"
       xlink:actuate="onLoad"
       xlink:show="other"
       xlink:type="simple"
       y1="51.3901"
       y2="53.4315">
      <stop
         offset="0"
         style="stop-color:#5B5B5B"
         id="stop175" />
      <stop
         offset="0.1038"
         style="stop-color:#6B6B6B"
         id="stop177" />
      <stop
         offset="0.351"
         style="stop-color:#8C8C8C"
         id="stop179" />
      <stop
         offset="0.5885"
         style="stop-color:#A3A3A3"
         id="stop181" />
      <stop
         offset="0.8102"
         style="stop-color:#B1B1B1"
         id="stop183" />
      <stop
         offset="1"
         style="stop-color:#B6B6B6"
         id="stop185" />
      <a:midPointStop
         offset="0"
         style="stop-color:#5B5B5B" />
      <a:midPointStop
         offset="0.3252"
         style="stop-color:#5B5B5B" />
      <a:midPointStop
         offset="1"
         style="stop-color:#B6B6B6" />
    </linearGradient>
    <linearGradient
       gradientTransform="matrix(-1 0 0 1 101.9824 0)"
       gradientUnits="userSpaceOnUse"
       id="SVGIDlaptop_6_"
       x1="24.5166"
       x2="54.2864"
       xlink:actuate="onLoad"
       xlink:show="other"
       xlink:type="simple"
       y1="16.2402"
       y2="70.0756">
      <stop
         offset="0"
         style="stop-color:#CACACA"
         id="stop188" />
      <stop
         offset="1"
         style="stop-color:#505050"
         id="stop190" />
      <a:midPointStop
         offset="0"
         style="stop-color:#CACACA" />
      <a:midPointStop
         offset="0.5"
         style="stop-color:#CACACA" />
      <a:midPointStop
         offset="1"
         style="stop-color:#505050" />
    </linearGradient>
    <linearGradient
       gradientUnits="userSpaceOnUse"
       id="SVGIDlaptop_7_"
       x1="39.2217"
       x2="94.8818"
       xlink:actuate="onLoad"
       xlink:show="other"
       xlink:type="simple"
       y1="34.0181"
       y2="34.0181">
      <stop
         offset="0"
         style="stop-color:#BABFC3"
         id="stop193" />
      <stop
         offset="1"
         style="stop-color:#5A7799"
         id="stop195" />
      <a:midPointStop
         offset="0"
         style="stop-color:#BABFC3" />
      <a:midPointStop
         offset="0.5"
         style="stop-color:#BABFC3" />
      <a:midPointStop
         offset="1"
         style="stop-color:#5A7799" />
    </linearGradient>
    <linearGradient
       gradientUnits="userSpaceOnUse"
       id="SVGIDlaptop_8_"
       x1="43.9243"
       x2="54.3043"
       xlink:actuate="onLoad"
       xlink:show="other"
       xlink:type="simple"
       y1="68.6743"
       y2="52.1961">
      <stop
         offset="0"
         style="stop-color:#FFFFFF"
         id="stop198" />
      <stop
         offset="1"
         style="stop-color:#939393"
         id="stop200" />
      <a:midPointStop
         offset="0"
         style="stop-color:#FFFFFF" />
      <a:midPointStop
         offset="0.5"
         style="stop-color:#FFFFFF" />
      <a:midPointStop
         offset="1"
         style="stop-color:#939393" />
    </linearGradient>
    <linearGradient
       gradientUnits="userSpaceOnUse"
       id="SVGIDlaptop_9_"
       x1="22.8643"
       x2="77.5586"
       xlink:actuate="onLoad"
       xlink:show="other"
       xlink:type="simple"
       y1="59.3579"
       y2="59.3579">
      <stop
         offset="0"
         style="stop-color:#939393"
         id="stop203" />
      <stop
         offset="1"
         style="stop-color:#191919"
         id="stop205" />
      <a:midPointStop
         offset="0"
         style="stop-color:#939393" />
      <a:midPointStop
         offset="0.5"
         style="stop-color:#939393" />
      <a:midPointStop
         offset="1"
         style="stop-color:#191919" />
    </linearGradient>
    <symbol
       id="com.gliffy.newnetwork.home.Laptop"
       viewBox="0 0 100 92"
       preserveAspectRatio="none">
      <g
         id="Layer_0">
        <rect
           fill="none"
           height="91.918"
           width="100"
           id="rect209" />
        <path
           d="M86.809,67.297c0.769,0.54,3.179-0.356,4.23-4.48l8.359-27.934c1.325-4.223,0.638-5.471-3.871-8.283   L52.72,1.551c-2.068-1.23-5.454-2.366-6.112-0.757l-9.861,35.293c-0.24,0.86,0.44,2.431,1.207,2.881L86.809,67.297z"
           id="path211" />
        <path
           d="M37.798,39.014c0,0,49.447,28.65,49.681,28.794c0.466,0.287,0.75,0.88,0.766,1.393   c0.021,0.758,0.03,1.846,0.03,2.604c0,0.998-0.872,1.451-1.566,1.85L55.961,91.359C55.242,91.773,54.281,92,53.251,92   c-1.035,0-2.005-0.229-2.729-0.65L1.201,62.756c-0.693-0.4-0.907-0.785-0.947-1.5c-0.102-1.823-0.701-3.734,0.398-4.64   L28.55,40.624c0.718-0.41,2.26-1.157,3.566-1.988C33.318,37.87,36.155,37.86,37.798,39.014z"
           id="path213" />
      </g>
      <g
         id="Layer_1">
        <rect
           fill="none"
           height="91.918"
           width="100"
           id="rect216" />
        <path
           d="M35.078,38.667c1.028,0,1.989,0.224,2.706,0.633l48.963,28.202c0.683,0.391,0.982,0.738,0.982,1.276   c0,0.538-0.439,0.896-1.123,1.286l-30.33,17.312c-0.709,0.405-1.656,0.627-2.672,0.627c-1.024,0-1.979-0.226-2.693-0.635   L2.08,59.277c-0.682-0.392-1.058-0.904-1.055-1.442s0.381-1.046,1.066-1.433l30.314-17.115   C33.114,38.887,34.064,38.667,35.078,38.667L35.078,38.667z"
           fill="url(#SVGIDlaptop_1_)"
           id="path218" />
        <path
           d="M53.794,86.15c0.813,0,1.561-0.172,2.103-0.484l29.032-16.715c0.41-0.236,0.554-0.466,0.554-0.593   c0-0.125-0.144-0.356-0.554-0.592l-46.734-26.92c-0.548-0.316-1.307-0.49-2.133-0.49c-0.816,0-1.567,0.17-2.109,0.479L4.935,57.359   c-0.383,0.219-0.555,0.452-0.556,0.587c0,0.135,0.17,0.37,0.552,0.591l46.742,27.122C52.22,85.977,52.971,86.15,53.794,86.15   L53.794,86.15z"
           fill="url(#SVGIDlaptop_2_)"
           id="path220" />
        <path
           d="M31.854,78.529c-0.001,0.195,0.03,1.052,0.727,1.432l16.578,9.813c0.495,0.263,0.662-0.597,0.629-0.812   c-0.036-0.246,0.039-0.676-0.6-1.057l-16.927-9.931C31.998,77.827,31.856,78.335,31.854,78.529z"
           fill="#D8D8D8"
           id="path222" />
        <path
           d="M24.186,66.521c-0.661,0.384-0.734,0.965-0.16,1.298l10.759,6.249   c0.573,0.333,1.575,0.292,2.235-0.092l6.836-3.971c0.663-0.384,0.734-0.965,0.16-1.298l-10.758-6.249   c-0.574-0.334-1.574-0.292-2.236,0.093L24.186,66.521z"
           fill="url(#SVGIDlaptop_3_)"
           id="path224" />
        <path
           d="M24.394,66.715c-0.647,0.375-0.717,0.943-0.158,1.269l10.513,6.106   c0.56,0.324,1.538,0.285,2.184-0.091l6.68-3.88c0.646-0.375,0.717-0.943,0.156-1.269l-10.512-6.105   c-0.56-0.326-1.538-0.285-2.186,0.091L24.394,66.715z"
           fill="url(#SVGIDlaptop_4_)"
           id="path226" />
        <path
           d="M45.138,42.445l-1.859,1.174l-0.008,0.761l31.497,18.526l0.029-0.493c0,0,0.052-0.371,0.43-0.568   c0.438-0.229,1.105-0.551,1.257-0.637c0.345-0.191,0.72-0.544-0.057-1.01c-0.282-0.168-30.333-17.793-30.333-17.793L45.138,42.445z   "
           fill="url(#SVGIDlaptop_5_)"
           id="path228" />
        <path
           d="M69.374,82.573c0,0.179,0.128,0.252,0.28,0.163l2.862-1.662c0.152-0.089,0.278-0.308,0.278-0.487v-0.792   c0-0.178-0.126-0.251-0.278-0.161l-2.862,1.661c-0.152,0.088-0.28,0.308-0.28,0.486V82.573z"
           fill="#C9C9C9"
           id="path230" />
        <path
           d="M77.91,77.421c0,0.178,0.126,0.252,0.281,0.163l2.858-1.662c0.155-0.09,0.28-0.309,0.28-0.487v-0.793   c0-0.178-0.125-0.251-0.28-0.161l-2.858,1.661c-0.155,0.089-0.281,0.308-0.281,0.487V77.421z"
           fill="#C9C9C9"
           id="path232" />
        <path
           d="M73.709,80.019c0,0.178,0.126,0.252,0.28,0.162l2.859-1.662c0.153-0.09,0.279-0.309,0.279-0.488V77.24   c0-0.179-0.126-0.252-0.279-0.162l-2.859,1.662c-0.154,0.088-0.28,0.309-0.28,0.485V80.019z"
           fill="#C9C9C9"
           id="path234" />
        <path
           d="M18.688,71.309c0,0.335,0.26,0.766,0.58,0.959c0.32,0.194,0.578,0.079,0.578-0.257   c0-0.335-0.258-0.765-0.578-0.959C18.948,70.859,18.688,70.973,18.688,71.309z"
           fill="#FFFFFF"
           id="path236" />
        <path
           d="M21.309,72.741c0,0.226,0.181,0.513,0.405,0.643l6.801,3.951c0.224,0.129,0.405,0.052,0.405-0.173l0,0   c0-0.225-0.182-0.513-0.405-0.642l-6.801-3.951C21.49,72.439,21.309,72.517,21.309,72.741L21.309,72.741z"
           fill="#D6D6D6"
           id="path238" />
        <path
           d="M86.685,66.926c0.761,0.447,1.586,0.115,1.831-0.737l9.917-34.454   c0.245-0.853-0.178-1.914-0.941-2.36L48.708,0.878c-0.764-0.445-1.585-0.112-1.824,0.743l-9.688,34.471   c-0.241,0.855,0.187,1.918,0.949,2.365L86.685,66.926z"
           fill="url(#SVGIDlaptop_6_)"
           id="path240" />
        <path
           d="M84.05,63.927c0.769,0.45,1.599,0.116,1.845-0.742l8.918-30.983c0.244-0.858-0.18-1.927-0.948-2.375   L49.837,4.108C49.068,3.66,48.242,3.996,48,4.854l-8.711,30.998c-0.241,0.861,0.189,1.933,0.955,2.382L84.05,63.927z"
           fill="url(#SVGIDlaptop_7_)"
           id="path242" />
        <g
           id="g244">
          <path
             d="M77.011,65.879c0.307-0.18,0.307-0.474,0.002-0.653L39.85,43.521    c-0.306-0.18-0.811-0.184-1.121-0.009l-15.947,9.007c-0.31,0.175-0.312,0.465-0.007,0.646l37.28,21.938    c0.307,0.181,0.81,0.182,1.117,0.004L77.011,65.879z"
             fill="url(#SVGIDlaptop_8_)"
             id="path246" />
          <path
             d="M77.329,65.274L40.167,43.567c-0.308-0.179-0.812-0.182-1.121-0.008l-15.948,9.007    c-0.31,0.175-0.312,0.466-0.006,0.646l37.279,21.937c0.308,0.182,0.812,0.182,1.117,0.005l15.839-9.228    C77.636,65.747,77.636,65.453,77.329,65.274z M72.394,62.977l1.714,0.994c0.138,0.08,0.12,0.221-0.041,0.315l-0.479,0.279    c-0.161,0.093-0.405,0.104-0.542,0.022l-1.714-0.994c-0.137-0.081-0.12-0.221,0.041-0.315l0.481-0.279    C72.011,62.905,72.255,62.895,72.394,62.977z M30.141,54.988l0.48-0.279c0.161-0.093,0.404-0.103,0.542-0.022l1.712,0.994    c0.14,0.082,0.123,0.223-0.038,0.316l-0.48,0.278c-0.161,0.093-0.404,0.103-0.542,0.023l-1.712-0.996    C29.963,55.222,29.98,55.082,30.141,54.988z M29.79,54.785c-0.16,0.093-0.403,0.103-0.542,0.023l-1.712-0.995    c-0.14-0.081-0.122-0.221,0.039-0.315l0.48-0.279c0.16-0.093,0.404-0.104,0.542-0.021l1.712,0.994    c0.139,0.08,0.121,0.221-0.04,0.314L29.79,54.785z M32.619,55.05c-0.14-0.081-0.121-0.221,0.04-0.315l1.949-1.132    c0.16-0.094,0.403-0.104,0.543-0.023l1.688,0.982c0.14,0.08,0.122,0.222-0.038,0.315l-1.951,1.132    c-0.161,0.093-0.404,0.104-0.542,0.022L32.619,55.05z M58.144,60.235l-1.949,1.132c-0.16,0.094-0.404,0.104-0.542,0.022    l-1.688-0.98c-0.141-0.081-0.121-0.222,0.039-0.315l1.95-1.132c0.161-0.093,0.402-0.103,0.543-0.023l1.688,0.98    C58.322,60.001,58.305,60.142,58.144,60.235z M58.633,60.52c0.16-0.093,0.404-0.104,0.544-0.023l1.688,0.981    c0.14,0.081,0.123,0.222-0.038,0.315l-1.951,1.132c-0.161,0.092-0.402,0.104-0.543,0.022l-1.688-0.98    c-0.137-0.082-0.12-0.221,0.039-0.315L58.633,60.52z M55.464,58.678l-1.949,1.133c-0.161,0.093-0.403,0.104-0.544,0.024    l-1.688-0.981c-0.139-0.081-0.122-0.223,0.04-0.316l1.946-1.132c0.164-0.093,0.406-0.103,0.544-0.021l1.689,0.98    C55.643,58.444,55.626,58.584,55.464,58.678z M52.781,57.121l-1.946,1.132c-0.16,0.093-0.403,0.104-0.543,0.024l-1.689-0.982    c-0.139-0.081-0.121-0.222,0.039-0.314l1.95-1.133c0.161-0.092,0.404-0.103,0.543-0.022l1.688,0.98    C52.961,56.888,52.945,57.028,52.781,57.121z M50.103,55.565l-1.95,1.132c-0.16,0.094-0.404,0.104-0.542,0.022l-1.689-0.981    c-0.139-0.08-0.122-0.221,0.038-0.314l1.951-1.133c0.16-0.093,0.403-0.103,0.542-0.022l1.69,0.98    C50.281,55.331,50.264,55.471,50.103,55.565z M47.422,54.007l-1.95,1.132c-0.161,0.093-0.404,0.103-0.542,0.024l-1.688-0.981    c-0.139-0.081-0.123-0.223,0.038-0.315l1.951-1.133c0.16-0.093,0.403-0.103,0.542-0.022l1.689,0.981    C47.6,53.773,47.582,53.915,47.422,54.007z M44.741,52.451l-1.951,1.132c-0.16,0.094-0.402,0.104-0.542,0.023l-1.688-0.981    c-0.138-0.081-0.122-0.222,0.039-0.315l1.951-1.132c0.16-0.092,0.403-0.104,0.542-0.022l1.688,0.981    C44.919,52.217,44.902,52.357,44.741,52.451z M42.061,50.895l-1.95,1.132c-0.161,0.093-0.403,0.104-0.542,0.021l-1.688-0.98    c-0.139-0.08-0.123-0.221,0.04-0.315l1.95-1.132c0.16-0.093,0.403-0.103,0.542-0.023l1.688,0.98    C42.238,50.659,42.221,50.8,42.061,50.895z M39.636,52.649l1.688,0.981c0.14,0.081,0.123,0.222-0.037,0.315l-1.951,1.133    c-0.161,0.094-0.404,0.104-0.543,0.022l-1.688-0.981c-0.139-0.08-0.122-0.222,0.039-0.314l1.95-1.133    C39.254,52.579,39.497,52.568,39.636,52.649z M39.726,55.303l1.948-1.132c0.162-0.094,0.404-0.104,0.544-0.022l1.688,0.981    c0.14,0.08,0.123,0.222-0.039,0.315l-1.95,1.132c-0.161,0.093-0.403,0.103-0.542,0.023l-1.688-0.981    C39.547,55.538,39.564,55.396,39.726,55.303z M42.329,56.816l1.949-1.134c0.161-0.092,0.404-0.103,0.543-0.021l1.69,0.981    c0.137,0.08,0.12,0.22-0.04,0.314l-1.951,1.132c-0.16,0.093-0.403,0.104-0.542,0.023l-1.689-0.98    C42.151,57.051,42.169,56.909,42.329,56.816z M44.91,58.315l1.95-1.132c0.161-0.094,0.404-0.104,0.542-0.023l1.688,0.98    c0.14,0.082,0.123,0.222-0.039,0.315l-1.95,1.133c-0.161,0.093-0.404,0.103-0.542,0.022l-1.689-0.981    C44.732,58.549,44.75,58.409,44.91,58.315z M47.538,59.842l1.95-1.134c0.159-0.093,0.403-0.103,0.542-0.022l1.688,0.981    c0.139,0.08,0.123,0.222-0.04,0.315l-1.95,1.132c-0.16,0.094-0.403,0.104-0.543,0.022l-1.687-0.981    C47.359,60.075,47.376,59.934,47.538,59.842z M50.117,61.339l1.952-1.132c0.16-0.093,0.401-0.104,0.541-0.022l1.69,0.98    c0.137,0.081,0.12,0.221-0.04,0.315l-1.95,1.132c-0.16,0.094-0.402,0.104-0.543,0.023l-1.688-0.981    C49.941,61.574,49.958,61.433,50.117,61.339z M52.725,62.852l1.948-1.132c0.159-0.094,0.404-0.104,0.541-0.022l1.69,0.98    c0.139,0.08,0.121,0.221-0.04,0.314l-1.949,1.133c-0.159,0.093-0.403,0.103-0.542,0.022l-1.69-0.98    C52.545,63.087,52.562,62.945,52.725,62.852z M55.304,64.353l1.95-1.133c0.16-0.094,0.402-0.105,0.543-0.023l1.688,0.98    c0.141,0.081,0.121,0.222-0.037,0.314l-1.95,1.134c-0.162,0.092-0.403,0.103-0.543,0.021l-1.69-0.98    C55.125,64.586,55.144,64.446,55.304,64.353z M59.355,63.504c-0.139-0.08-0.119-0.22,0.039-0.314l1.95-1.133    c0.162-0.093,0.402-0.104,0.544-0.023l1.687,0.98c0.138,0.081,0.122,0.222-0.037,0.315l-1.951,1.133    c-0.16,0.093-0.402,0.104-0.543,0.022L59.355,63.504z M62.084,64.743l1.948-1.132c0.161-0.094,0.404-0.104,0.542-0.023l1.69,0.981    c0.139,0.081,0.12,0.222-0.04,0.314l-1.95,1.132c-0.159,0.093-0.403,0.104-0.541,0.023l-1.691-0.98    C61.904,64.977,61.923,64.835,62.084,64.743z M65.717,63.831c-0.138-0.081-0.12-0.223,0.04-0.315l1.948-1.131    c0.162-0.094,0.404-0.105,0.542-0.023l1.69,0.98c0.141,0.082,0.121,0.223-0.039,0.315l-1.949,1.133    c-0.161,0.092-0.403,0.104-0.543,0.022L65.717,63.831z M67.221,62.102l-1.95,1.133c-0.158,0.093-0.402,0.103-0.54,0.022    l-1.689-0.981c-0.14-0.08-0.123-0.221,0.04-0.314l1.948-1.132c0.162-0.094,0.404-0.104,0.541-0.024l1.691,0.98    C67.4,61.868,67.382,62.009,67.221,62.102z M64.546,60.547l-1.95,1.132c-0.163,0.093-0.403,0.103-0.544,0.023l-1.688-0.981    c-0.138-0.081-0.121-0.221,0.041-0.314l1.947-1.134c0.163-0.092,0.405-0.103,0.544-0.022l1.688,0.981    C64.723,60.312,64.706,60.454,64.546,60.547z M61.87,58.992l-1.95,1.134c-0.162,0.092-0.405,0.104-0.544,0.022l-1.688-0.98    c-0.141-0.082-0.123-0.22,0.038-0.314l1.949-1.132c0.162-0.093,0.404-0.104,0.544-0.023l1.688,0.98    C62.046,58.758,62.029,58.9,61.87,58.992z M59.191,57.438l-1.95,1.133c-0.158,0.093-0.402,0.104-0.542,0.022l-1.689-0.981    c-0.138-0.08-0.12-0.221,0.041-0.315l1.95-1.132c0.158-0.093,0.402-0.103,0.541-0.022l1.69,0.981    C59.37,57.204,59.353,57.344,59.191,57.438z M56.517,55.883l-1.95,1.133c-0.161,0.093-0.404,0.103-0.544,0.022l-1.688-0.98    c-0.14-0.081-0.121-0.222,0.038-0.316l1.952-1.132c0.159-0.093,0.401-0.103,0.542-0.021l1.688,0.981    C56.693,55.649,56.675,55.79,56.517,55.883z M53.839,54.329l-1.952,1.132c-0.157,0.093-0.401,0.104-0.54,0.023l-1.688-0.981    c-0.139-0.081-0.122-0.221,0.039-0.314l1.95-1.133c0.161-0.092,0.403-0.103,0.542-0.022l1.688,0.98    C54.017,54.095,53.999,54.236,53.839,54.329z M51.163,52.774l-1.951,1.132c-0.16,0.094-0.403,0.104-0.542,0.023l-1.688-0.981    c-0.139-0.08-0.121-0.222,0.039-0.315l1.95-1.132c0.16-0.093,0.404-0.103,0.543-0.022l1.687,0.981    C51.341,52.54,51.323,52.681,51.163,52.774z M48.485,51.219l-1.95,1.133c-0.16,0.093-0.404,0.103-0.542,0.023l-1.69-0.981    c-0.138-0.081-0.121-0.222,0.04-0.315l1.95-1.132c0.16-0.093,0.403-0.104,0.542-0.022l1.689,0.98    C48.664,50.986,48.646,51.126,48.485,51.219z M45.809,49.666l-1.951,1.132c-0.159,0.094-0.402,0.104-0.542,0.023l-1.688-0.981    c-0.14-0.081-0.122-0.222,0.038-0.314l1.95-1.132c0.162-0.094,0.405-0.103,0.542-0.023l1.689,0.981    C45.987,49.431,45.968,49.573,45.809,49.666z M43.131,48.111l-1.949,1.132c-0.161,0.093-0.404,0.104-0.542,0.022l-1.688-0.979    c-0.14-0.082-0.122-0.223,0.039-0.315l1.949-1.133c0.161-0.094,0.404-0.104,0.543-0.022l1.688,0.981    C43.31,47.876,43.292,48.018,43.131,48.111z M39.419,49.022c0.139,0.08,0.122,0.222-0.039,0.315l-1.95,1.132    c-0.161,0.093-0.403,0.104-0.543,0.022L35.2,49.51c-0.14-0.08-0.123-0.221,0.039-0.314l1.949-1.132    c0.161-0.093,0.404-0.104,0.542-0.022L39.419,49.022z M37.008,51.123l1.689,0.981c0.139,0.082,0.122,0.223-0.039,0.316    l-1.949,1.132c-0.161,0.094-0.403,0.104-0.542,0.023l-1.689-0.981c-0.139-0.081-0.122-0.221,0.039-0.315l1.95-1.132    C36.627,51.053,36.87,51.043,37.008,51.123z M35.239,56.235l1.951-1.133c0.16-0.093,0.403-0.103,0.542-0.021l1.689,0.981    c0.138,0.08,0.123,0.22-0.039,0.314l-1.95,1.133c-0.161,0.093-0.403,0.103-0.543,0.023l-1.688-0.98    C35.062,56.469,35.078,56.328,35.239,56.235z M37.866,57.759l1.95-1.132c0.161-0.093,0.404-0.103,0.542-0.022l1.688,0.981    c0.138,0.081,0.123,0.222-0.039,0.315l-1.95,1.132c-0.16,0.093-0.403,0.103-0.542,0.023l-1.688-0.98    C37.688,57.995,37.706,57.853,37.866,57.759z M40.447,59.26l1.95-1.132c0.162-0.094,0.403-0.104,0.542-0.023l1.689,0.98    c0.139,0.082,0.121,0.223-0.039,0.315l-1.951,1.133c-0.161,0.094-0.403,0.103-0.542,0.022l-1.689-0.981    C40.27,59.494,40.286,59.353,40.447,59.26z M43.052,60.772l1.95-1.132c0.16-0.094,0.403-0.103,0.542-0.023l1.688,0.98    c0.14,0.082,0.122,0.223-0.038,0.316l-1.951,1.132c-0.161,0.094-0.403,0.104-0.543,0.022l-1.688-0.981    C42.874,61.007,42.891,60.866,43.052,60.772z M45.633,62.271l1.951-1.133c0.159-0.093,0.403-0.103,0.542-0.022l1.689,0.981    c0.138,0.08,0.121,0.221-0.04,0.315l-1.95,1.132c-0.161,0.093-0.403,0.103-0.542,0.022l-1.688-0.98    C45.455,62.505,45.472,62.364,45.633,62.271z M48.259,63.796l1.951-1.132c0.162-0.093,0.402-0.103,0.544-0.022l1.687,0.98    c0.138,0.081,0.121,0.221-0.037,0.315l-1.952,1.132c-0.16,0.093-0.403,0.103-0.542,0.023l-1.688-0.981    C48.082,64.031,48.099,63.89,48.259,63.796z M50.842,65.296l1.949-1.132c0.161-0.094,0.404-0.104,0.542-0.023l1.688,0.98    c0.141,0.082,0.123,0.223-0.037,0.316l-1.95,1.132c-0.162,0.094-0.403,0.103-0.542,0.022l-1.689-0.981    C50.663,65.53,50.681,65.39,50.842,65.296z M53.444,66.809l1.952-1.132c0.159-0.094,0.401-0.105,0.541-0.023l1.689,0.98    c0.14,0.082,0.12,0.223-0.039,0.316l-1.949,1.132c-0.162,0.092-0.403,0.104-0.544,0.021l-1.688-0.979    C53.266,67.042,53.286,66.903,53.444,66.809z M56.026,68.308l1.95-1.132c0.16-0.093,0.403-0.103,0.542-0.022l1.689,0.981    c0.139,0.08,0.122,0.221-0.039,0.314l-1.951,1.133c-0.157,0.093-0.402,0.103-0.54,0.023l-1.69-0.98    C55.85,68.542,55.866,68.401,56.026,68.308z M60.175,67.144c-0.16,0.093-0.404,0.104-0.542,0.023l-1.69-0.981    c-0.139-0.081-0.121-0.223,0.041-0.315l1.95-1.133c0.158-0.092,0.402-0.103,0.54-0.022l1.69,0.98    c0.139,0.082,0.123,0.223-0.04,0.315L60.175,67.144z M60.548,67.394l1.951-1.134c0.16-0.092,0.401-0.103,0.542-0.022l1.689,0.981    c0.138,0.081,0.12,0.222-0.041,0.313l-1.949,1.132c-0.16,0.094-0.404,0.104-0.542,0.023l-1.688-0.981    C60.369,67.626,60.386,67.485,60.548,67.394z M64.697,66.631c-0.139-0.081-0.122-0.222,0.039-0.314l1.95-1.132    c0.161-0.093,0.402-0.105,0.542-0.023l1.688,0.98c0.138,0.082,0.122,0.222-0.039,0.315l-1.951,1.133    c-0.159,0.092-0.401,0.103-0.54,0.022L64.697,66.631z M68.394,65.386c-0.139-0.081-0.121-0.222,0.04-0.316l1.949-1.132    c0.16-0.094,0.403-0.104,0.542-0.022l1.69,0.981c0.139,0.079,0.121,0.221-0.04,0.314l-1.949,1.132    c-0.16,0.093-0.404,0.104-0.542,0.023L68.394,65.386z M69.654,61.384l1.714,0.995c0.137,0.081,0.121,0.222-0.041,0.315    l-0.479,0.28c-0.16,0.092-0.403,0.104-0.542,0.022l-1.714-0.994c-0.138-0.081-0.12-0.223,0.041-0.315l0.48-0.278    C69.271,61.315,69.517,61.305,69.654,61.384z M66.915,59.794l1.714,0.995c0.138,0.081,0.121,0.222-0.041,0.314l-0.48,0.279    c-0.158,0.095-0.402,0.104-0.542,0.024l-1.712-0.995c-0.139-0.081-0.12-0.222,0.039-0.315l0.48-0.279    C66.533,59.723,66.777,59.713,66.915,59.794z M64.177,58.203l1.712,0.995c0.14,0.081,0.122,0.222-0.039,0.315l-0.481,0.279    c-0.159,0.093-0.401,0.103-0.542,0.022l-1.712-0.995c-0.138-0.08-0.12-0.222,0.04-0.314l0.48-0.279    C63.795,58.133,64.038,58.123,64.177,58.203z M61.437,56.612l1.713,0.995c0.139,0.081,0.122,0.223-0.039,0.315l-0.48,0.279    c-0.16,0.093-0.403,0.103-0.54,0.023l-1.715-0.994c-0.138-0.081-0.121-0.222,0.04-0.316l0.48-0.279    C61.055,56.542,61.3,56.531,61.437,56.612z M58.696,55.022l1.716,0.994c0.138,0.082,0.121,0.222-0.041,0.314l-0.48,0.28    c-0.159,0.093-0.404,0.104-0.54,0.021l-1.714-0.995c-0.14-0.08-0.122-0.22,0.039-0.313l0.48-0.28    C58.316,54.951,58.561,54.941,58.696,55.022z M55.96,53.431l1.712,0.996c0.138,0.08,0.121,0.221-0.039,0.313l-0.481,0.279    c-0.16,0.093-0.402,0.104-0.541,0.022l-1.713-0.995c-0.138-0.081-0.122-0.222,0.04-0.315l0.479-0.278    C55.577,53.361,55.82,53.35,55.96,53.431z M53.221,51.84l1.712,0.994c0.139,0.082,0.12,0.222-0.039,0.316l-0.48,0.278    c-0.16,0.094-0.404,0.103-0.542,0.022l-1.713-0.994c-0.139-0.081-0.122-0.222,0.04-0.315l0.479-0.28    C52.839,51.769,53.081,51.759,53.221,51.84z M50.482,50.25l1.71,0.994c0.14,0.08,0.123,0.222-0.038,0.315l-0.481,0.278    c-0.158,0.094-0.403,0.104-0.541,0.023l-1.713-0.995c-0.14-0.081-0.12-0.221,0.039-0.315l0.481-0.279    C50.099,50.178,50.341,50.169,50.482,50.25z M47.742,48.658l1.712,0.995c0.139,0.08,0.121,0.221-0.04,0.314l-0.481,0.279    c-0.159,0.093-0.402,0.104-0.542,0.022l-1.712-0.994c-0.139-0.082-0.121-0.223,0.04-0.316l0.48-0.278    C47.359,48.588,47.602,48.577,47.742,48.658z M45.002,47.067l1.712,0.995c0.14,0.081,0.122,0.221-0.039,0.314l-0.479,0.279    c-0.161,0.093-0.404,0.103-0.542,0.023l-1.712-0.995c-0.14-0.08-0.123-0.222,0.038-0.314l0.48-0.279    C44.62,46.997,44.864,46.987,45.002,47.067z M42.263,45.476l1.712,0.995c0.139,0.081,0.121,0.221-0.039,0.314l-0.481,0.279    c-0.16,0.094-0.403,0.104-0.542,0.022l-1.712-0.994c-0.139-0.081-0.122-0.223,0.04-0.315l0.48-0.278    C41.882,45.405,42.125,45.396,42.263,45.476z M38.502,44.187l0.478-0.279c0.162-0.093,0.405-0.104,0.542-0.023l1.713,0.994    c0.139,0.082,0.122,0.223-0.038,0.316l-0.481,0.278c-0.161,0.093-0.404,0.103-0.542,0.022l-1.712-0.995    C38.324,44.422,38.34,44.28,38.502,44.187z M35.68,45.951l1.949-1.132c0.161-0.094,0.398-0.107,0.528-0.032l2.614,1.518    c0.131,0.077,0.107,0.214-0.053,0.306l-1.95,1.134c-0.161,0.092-0.396,0.106-0.528,0.031l-2.613-1.518    C35.495,46.182,35.518,46.045,35.68,45.951z M32.557,47.639l1.95-1.132c0.16-0.094,0.403-0.104,0.542-0.022l1.688,0.98    c0.141,0.081,0.123,0.222-0.037,0.315l-1.95,1.132c-0.162,0.094-0.405,0.103-0.542,0.024l-1.689-0.981    C32.378,47.873,32.397,47.732,32.557,47.639z M29.538,49.393l1.95-1.132c0.161-0.093,0.417-0.095,0.575-0.003l3.697,2.147    c0.158,0.091,0.155,0.241-0.005,0.333l-1.95,1.134c-0.161,0.092-0.417,0.093-0.575,0.003l-3.697-2.147    C29.375,49.635,29.377,49.486,29.538,49.393z M26.508,51.152l1.95-1.132c0.16-0.093,0.418-0.095,0.577-0.002l5.037,2.925    c0.157,0.092,0.156,0.243-0.004,0.335l-1.951,1.132c-0.161,0.094-0.418,0.094-0.577,0.003l-5.036-2.926    C26.346,51.396,26.348,51.246,26.508,51.152z M24.989,51.956l0.48-0.278c0.16-0.094,0.403-0.105,0.542-0.023l1.712,0.994    c0.14,0.081,0.121,0.223-0.039,0.316l-0.48,0.278c-0.161,0.093-0.404,0.104-0.542,0.023l-1.712-0.995    C24.811,52.189,24.83,52.048,24.989,51.956z M25.247,54.099l-1.713-0.994c-0.14-0.081-0.122-0.222,0.039-0.316l0.481-0.278    c0.16-0.093,0.402-0.104,0.542-0.023l1.712,0.994c0.138,0.081,0.12,0.223-0.04,0.315l-0.48,0.278    C25.627,54.169,25.385,54.18,25.247,54.099z M27.855,55.615l-1.712-0.994c-0.138-0.081-0.121-0.222,0.039-0.315l0.481-0.279    c0.161-0.092,0.403-0.103,0.542-0.022l1.712,0.994c0.139,0.082,0.122,0.222-0.04,0.315l-0.479,0.279    C28.237,55.685,27.995,55.695,27.855,55.615z M30.467,57.132l-1.711-0.996c-0.139-0.079-0.124-0.221,0.039-0.313l0.48-0.28    c0.161-0.093,0.403-0.103,0.542-0.022l1.712,0.995c0.139,0.081,0.121,0.222-0.039,0.314l-0.48,0.279    C30.849,57.201,30.606,57.212,30.467,57.132z M33.928,59.244l-2.415-1.403c-0.199-0.115-0.23-0.285-0.069-0.378l1.95-1.132    c0.161-0.093,0.451-0.075,0.65,0.041l2.416,1.403c0.199,0.115,0.229,0.284,0.069,0.377l-1.95,1.133    C34.419,59.376,34.126,59.359,33.928,59.244z M37.383,61.364l-2.416-1.403c-0.198-0.115-0.23-0.284-0.068-0.377l1.95-1.133    c0.16-0.093,0.451-0.075,0.649,0.04l2.415,1.403c0.199,0.116,0.23,0.286,0.07,0.378l-1.95,1.133    C37.874,61.498,37.582,61.479,37.383,61.364z M49.456,68.392l-11.118-6.458c-0.138-0.08-0.12-0.222,0.04-0.314l1.978-1.148    c0.161-0.093,0.403-0.103,0.542-0.023l11.117,6.457c0.14,0.08,0.122,0.222-0.039,0.315l-1.978,1.147    C49.839,68.462,49.596,68.472,49.456,68.392z M52.913,70.382l-2.417-1.402c-0.199-0.116-0.228-0.285-0.069-0.378l1.949-1.132    c0.162-0.095,0.453-0.075,0.652,0.041l2.414,1.401c0.199,0.117,0.229,0.286,0.068,0.378l-1.95,1.133    C53.403,70.518,53.111,70.499,52.913,70.382z M55.646,71.875l-1.688-0.981c-0.139-0.081-0.122-0.222,0.039-0.314l1.949-1.134    c0.162-0.092,0.403-0.103,0.541-0.021l1.69,0.98c0.139,0.081,0.121,0.222-0.039,0.314l-1.95,1.132    C56.028,71.945,55.786,71.955,55.646,71.875z M58.237,73.439l-1.688-0.981c-0.138-0.081-0.122-0.221,0.039-0.315l1.949-1.133    c0.161-0.092,0.405-0.102,0.543-0.021l1.688,0.981c0.142,0.08,0.124,0.221-0.037,0.314l-1.95,1.133    C58.62,73.51,58.377,73.52,58.237,73.439z M63.309,73.782l-1.952,1.132c-0.157,0.093-0.401,0.104-0.54,0.022l-1.69-0.98    c-0.138-0.082-0.12-0.222,0.04-0.314l1.95-1.133c0.159-0.093,0.404-0.103,0.542-0.023l1.69,0.981    C63.486,73.547,63.469,73.688,63.309,73.782z M66.338,72.021l-1.95,1.133c-0.16,0.093-0.418,0.094-0.578,0.002l-5.035-2.926    c-0.158-0.092-0.156-0.242,0.005-0.335l1.951-1.133c0.159-0.092,0.416-0.095,0.577-0.002l5.034,2.926    C66.501,71.778,66.499,71.929,66.338,72.021z M69.368,70.261l-1.95,1.132c-0.159,0.095-0.418,0.096-0.575,0.003l-3.696-2.147    c-0.156-0.09-0.154-0.24,0.007-0.333l1.949-1.133c0.159-0.092,0.418-0.094,0.576-0.003l3.695,2.148    C69.532,70.019,69.528,70.168,69.368,70.261z M72.397,68.501l-1.949,1.132c-0.159,0.094-0.397,0.107-0.528,0.031l-2.612-1.518    c-0.13-0.076-0.106-0.213,0.053-0.306l1.951-1.133c0.159-0.093,0.396-0.107,0.528-0.031l2.612,1.517    C72.582,68.27,72.559,68.408,72.397,68.501z M75.252,66.766l-1.948,1.132c-0.162,0.094-0.406,0.104-0.544,0.022l-1.688-0.98    c-0.141-0.081-0.12-0.222,0.037-0.314l1.952-1.133c0.16-0.094,0.401-0.103,0.542-0.023l1.688,0.981    C75.429,66.532,75.412,66.673,75.252,66.766z M76.807,65.877l-0.48,0.278c-0.16,0.093-0.403,0.104-0.542,0.023l-1.714-0.995    c-0.137-0.081-0.121-0.223,0.041-0.315l0.479-0.279c0.16-0.092,0.404-0.104,0.542-0.022l1.715,0.995    C76.984,65.642,76.967,65.784,76.807,65.877z"
             fill="url(#SVGIDlaptop_9_)"
             id="path248" />
        </g>
      </g>
    </symbol>
  </defs>
  <g
     transform="translate(538.0,205.0) rotate(0 60.0 60.0)"
     id="g250">
    <use
       xlink:href="#com.gliffy.newnetwork.home.Laptop"
       width="120.0"
       height="120.0"
       fill="#003366"
       id="use252" />
    <g
       id="g254" />
  </g>
  <defs
     id="defs256">
    <linearGradient
       gradientUnits="userSpaceOnUse"
       id="SVGIDiPhone_1_"
       x1="68.7339"
       x2="1.397"
       xlink:actuate="onLoad"
       xlink:show="other"
       xlink:type="simple"
       y1="50.0381"
       y2="50.0381">
      <stop
         offset="0"
         style="stop-color:#191919"
         id="stop259" />
      <stop
         offset="0.2045"
         style="stop-color:#1B1B1B"
         id="stop261" />
      <stop
         offset="0.3014"
         style="stop-color:#232323"
         id="stop263" />
      <stop
         offset="0.3757"
         style="stop-color:#303030"
         id="stop265" />
      <stop
         offset="0.4384"
         style="stop-color:#424242"
         id="stop267" />
      <stop
         offset="0.4933"
         style="stop-color:#5A5A5A"
         id="stop269" />
      <stop
         offset="0.5215"
         style="stop-color:#696969"
         id="stop271" />
      <stop
         offset="0.5495"
         style="stop-color:#565656"
         id="stop273" />
      <stop
         offset="0.593"
         style="stop-color:#404040"
         id="stop275" />
      <stop
         offset="0.6437"
         style="stop-color:#2E2E2E"
         id="stop277" />
      <stop
         offset="0.7055"
         style="stop-color:#222222"
         id="stop279" />
      <stop
         offset="0.7899"
         style="stop-color:#1B1B1B"
         id="stop281" />
      <stop
         offset="1"
         style="stop-color:#191919"
         id="stop283" />
      <a:midPointStop
         offset="0"
         style="stop-color:#191919" />
      <a:midPointStop
         offset="0.8354"
         style="stop-color:#191919" />
      <a:midPointStop
         offset="0.5215"
         style="stop-color:#696969" />
      <a:midPointStop
         offset="0.1429"
         style="stop-color:#696969" />
      <a:midPointStop
         offset="1"
         style="stop-color:#191919" />
    </linearGradient>
    <linearGradient
       gradientUnits="userSpaceOnUse"
       id="SVGIDiPhone_2_"
       x1="26.0957"
       x2="63.1709"
       xlink:actuate="onLoad"
       xlink:show="other"
       xlink:type="simple"
       y1="28.2344"
       y2="28.2344">
      <stop
         offset="0"
         style="stop-color:#F4F4F4"
         id="stop286" />
      <stop
         offset="1"
         style="stop-color:#2E2E2E"
         id="stop288" />
      <a:midPointStop
         offset="0"
         style="stop-color:#F4F4F4" />
      <a:midPointStop
         offset="0.5"
         style="stop-color:#F4F4F4" />
      <a:midPointStop
         offset="1"
         style="stop-color:#2E2E2E" />
    </linearGradient>
    <linearGradient
       gradientUnits="userSpaceOnUse"
       id="SVGIDiPhone_3_"
       x1="22.7324"
       x2="17.8773"
       xlink:actuate="onLoad"
       xlink:show="other"
       xlink:type="simple"
       y1="87.6924"
       y2="81.2495">
      <stop
         offset="0"
         style="stop-color:#C0C0C0"
         id="stop291" />
      <stop
         offset="0.0829"
         style="stop-color:#979797"
         id="stop293" />
      <stop
         offset="0.179"
         style="stop-color:#6F6F6F"
         id="stop295" />
      <stop
         offset="0.2814"
         style="stop-color:#4D4D4D"
         id="stop297" />
      <stop
         offset="0.3898"
         style="stop-color:#313131"
         id="stop299" />
      <stop
         offset="0.5061"
         style="stop-color:#1B1B1B"
         id="stop301" />
      <stop
         offset="0.6339"
         style="stop-color:#0C0C0C"
         id="stop303" />
      <stop
         offset="0.7824"
         style="stop-color:#030303"
         id="stop305" />
      <stop
         offset="1"
         style="stop-color:#000000"
         id="stop307" />
      <a:midPointStop
         offset="0"
         style="stop-color:#C0C0C0" />
      <a:midPointStop
         offset="0.2209"
         style="stop-color:#C0C0C0" />
      <a:midPointStop
         offset="1"
         style="stop-color:#000000" />
    </linearGradient>
    <linearGradient
       gradientUnits="userSpaceOnUse"
       id="SVGIDiPhone_4_"
       x1="6.2539"
       x2="43.4121"
       xlink:actuate="onLoad"
       xlink:show="other"
       xlink:type="simple"
       y1="72.3477"
       y2="72.3477">
      <stop
         offset="0"
         style="stop-color:#BABABA"
         id="stop310" />
      <stop
         offset="1"
         style="stop-color:#282828"
         id="stop312" />
      <a:midPointStop
         offset="0"
         style="stop-color:#BABABA" />
      <a:midPointStop
         offset="0.5"
         style="stop-color:#BABABA" />
      <a:midPointStop
         offset="1"
         style="stop-color:#282828" />
    </linearGradient>
    <linearGradient
       gradientUnits="userSpaceOnUse"
       id="SVGIDiPhone_5_"
       x1="23.8843"
       x2="26.6508"
       xlink:actuate="onLoad"
       xlink:show="other"
       xlink:type="simple"
       y1="74.1699"
       y2="69.3394">
      <stop
         offset="0.0123"
         style="stop-color:#828282"
         id="stop315" />
      <stop
         offset="1"
         style="stop-color:#0C0C0C"
         id="stop317" />
      <a:midPointStop
         offset="0.0123"
         style="stop-color:#828282" />
      <a:midPointStop
         offset="0.5"
         style="stop-color:#828282" />
      <a:midPointStop
         offset="1"
         style="stop-color:#0C0C0C" />
    </linearGradient>
    <linearGradient
       gradientUnits="userSpaceOnUse"
       id="SVGIDiPhone_6_"
       x1="12.3677"
       x2="15.1269"
       xlink:actuate="onLoad"
       xlink:show="other"
       xlink:type="simple"
       y1="67.5879"
       y2="62.7701">
      <stop
         offset="0"
         style="stop-color:#0C0C0C"
         id="stop320" />
      <stop
         offset="1"
         style="stop-color:#CDCDCD"
         id="stop322" />
      <a:midPointStop
         offset="0"
         style="stop-color:#0C0C0C" />
      <a:midPointStop
         offset="0.5"
         style="stop-color:#0C0C0C" />
      <a:midPointStop
         offset="1"
         style="stop-color:#CDCDCD" />
    </linearGradient>
    <linearGradient
       gradientUnits="userSpaceOnUse"
       id="SVGIDiPhone_7_"
       x1="19.0703"
       x2="50.1906"
       xlink:actuate="onLoad"
       xlink:show="other"
       xlink:type="simple"
       y1="65.6875"
       y2="34.5672">
      <stop
         offset="0"
         style="stop-color:#0067A1"
         id="stop325" />
      <stop
         offset="0.1275"
         style="stop-color:#1E81B1"
         id="stop327" />
      <stop
         offset="0.3936"
         style="stop-color:#57B2CF"
         id="stop329" />
      <stop
         offset="0.5215"
         style="stop-color:#6EC5DB"
         id="stop331" />
      <stop
         offset="0.5928"
         style="stop-color:#67BFD7"
         id="stop333" />
      <stop
         offset="0.6987"
         style="stop-color:#53ADCB"
         id="stop335" />
      <stop
         offset="0.8262"
         style="stop-color:#3290B7"
         id="stop337" />
      <stop
         offset="0.9692"
         style="stop-color:#04689C"
         id="stop339" />
      <stop
         offset="0.9816"
         style="stop-color:#006499"
         id="stop341" />
      <a:midPointStop
         offset="0"
         style="stop-color:#0067A1" />
      <a:midPointStop
         offset="0.4588"
         style="stop-color:#0067A1" />
      <a:midPointStop
         offset="0.5215"
         style="stop-color:#6EC5DB" />
      <a:midPointStop
         offset="0.6216"
         style="stop-color:#6EC5DB" />
      <a:midPointStop
         offset="0.9816"
         style="stop-color:#006499" />
    </linearGradient>
    <symbol
       id="com.gliffy.newnetwork.home.iPhone"
       viewBox="0 0 72.004 100"
       preserveAspectRatio="none">
      <g
         id="g344">
        <rect
           fill="none"
           height="100"
           width="72"
           id="rect346" />
        <path
           d="M66.686,14.43L44.665,1.705c-5.75-3.323-11.209-1.608-13.657,3.567L0.874,72.187   c-1.907,4.235-0.564,10.16,2.766,12.079l25.067,14.492c5.094,3.189,11.115-0.087,13.754-6.14l28.261-63.039   C72.629,25.344,73.192,18.188,66.686,14.43z M43.412,75.938L10.935,57.903l15.161-33.807L58.259,42.65L43.412,75.938z"
           id="path348" />
      </g>
      <g
         id="g350">
        <rect
           fill="none"
           height="100"
           width="72"
           id="rect352" />
        <path
           d="M32.08,98.708L32.08,98.708c-1.003,0-1.958-0.258-2.838-0.767L4.174,83.455   c-3.256-1.879-4.413-6.731-2.577-10.814L31.474,6.183c1.314-2.923,3.896-4.812,6.579-4.812c1,0,1.953,0.257,2.83,0.764   l25.069,14.486c3.259,1.883,4.418,6.736,2.583,10.819L38.658,93.898C37.344,96.819,34.762,98.708,32.08,98.708L32.08,98.708z    M38.052,2.729c-2.149,0-4.246,1.575-5.341,4.011L2.834,73.198c-1.558,3.465-0.652,7.538,2.018,9.08l25.068,14.487   c0.671,0.388,1.397,0.583,2.158,0.583c2.149,0,4.246-1.573,5.34-4.009l29.877-66.457c1.558-3.466,0.649-7.54-2.024-9.086   L40.203,3.311C39.535,2.926,38.812,2.729,38.052,2.729L38.052,2.729z"
           fill="#FFFFFF"
           id="path354" />
        <path
           d="M65.611,17.208L40.542,2.723c-2.966-1.716-6.751-0.04-8.45,3.738L2.216,72.919   c-1.699,3.778-0.67,8.233,2.297,9.948l25.068,14.485c2.973,1.719,6.758,0.044,8.457-3.735L67.916,27.16   C69.614,23.382,68.585,18.926,65.611,17.208z M43.37,75.873L11.04,57.657l15.056-33.575l32.163,18.554L43.37,75.873z"
           fill="url(#SVGIDiPhone_1_)"
           id="path356" />
        <polygon
           fill="url(#SVGIDiPhone_2_)"
           points="26.096,24.119 30.607,13.79 63.171,32.041 58.282,42.68  "
           id="polygon358" />
        <polygon
           fill="#2E2E2E"
           points="29.418,16.514 30.607,13.79 63.184,32.095 61.812,35.08  "
           id="polygon360" />
        <path
           d="M21.836,79.568c-2.128-1.333-4.754-0.491-5.854,1.878s-0.257,5.374,1.871,6.707   c2.127,1.334,4.741,0.495,5.84-1.875C24.792,83.911,23.963,80.901,21.836,79.568"
           fill="#252525"
           id="path362" />
        <path
           d="M21.836,79.568c-0.269-0.168-0.546-0.301-0.827-0.401c-1.78-0.87,1.973,8.215-4.52,7.677   c0.365,0.52,0.821,0.97,1.364,1.31c2.127,1.334,4.741,0.495,5.84-1.875C24.792,83.911,23.963,80.901,21.836,79.568z"
           fill="url(#SVGIDiPhone_3_)"
           id="path364" />
        <polygon
           fill="url(#SVGIDiPhone_4_)"
           points="6.254,68.302 11.076,57.618 43.412,75.96 38.356,87.076  "
           id="polygon366" />
        <path
           d="M10.323,66.724c-0.712-0.414-0.972-1.46-0.64-2.213l1.199-2.73c0.332-0.754,1.189-1.04,1.905-0.634   L40.444,76.92c0.717,0.407,0.969,1.07,0.589,1.801l-1.315,2.902c-0.38,0.729-0.887,1.175-1.998,0.529L10.323,66.724z"
           fill="url(#SVGIDiPhone_5_)"
           id="path368" />
        <path
           d="M10.333,66.71c-0.723-0.419-1.039-1.389-0.703-2.154l1.216-2.771   c0.337-0.765,1.208-1.056,1.935-0.644l4.653,2.633c0.728,0.412,1.008,1.355,0.622,2.098l-1.422,2.739   c-0.386,0.741-1.293,1.006-2.017,0.586L10.333,66.71z"
           fill="url(#SVGIDiPhone_6_)"
           id="path370" />
        <polygon
           fill="#D8D8D8"
           points="12.207,63.543 14.524,64.881 14.976,63.766 16.015,66.398 13.606,66.867 13.967,65.97    11.711,64.763  "
           id="polygon372" />
        <polygon
           fill="#5FB1FF"
           points="10.935,57.926 26.096,24.119 58.259,42.672 43.412,75.96  "
           id="polygon374" />
      </g>
      <g
         id="Layer_2">
        <rect
           fill="none"
           height="100"
           width="72"
           id="rect377" />
        <polygon
           fill="url(#SVGIDiPhone_7_)"
           points="11.04,57.657 26.096,24.082 58.259,42.636 43.412,75.923  "
           id="polygon379" />
        <g
           id="g381">
          <path
             d="M36.889,28.564l-0.605-0.344l1.546-3.513c-0.201,0.046-0.448,0.063-0.739,0.057    c-0.293-0.009-0.547-0.035-0.762-0.078l0.235-0.532c0.402,0.046,0.775,0.038,1.119-0.024s0.611-0.16,0.802-0.295l0.39,0.221    L36.889,28.564z"
             fill="#FFFFFF"
             id="path383" />
          <path
             d="M39.412,27.229c0.233-0.53,0.481-0.924,0.744-1.179c0.262-0.257,0.549-0.405,0.863-0.445    c0.313-0.042,0.649,0.038,1.008,0.241c0.264,0.15,0.475,0.331,0.631,0.541c0.156,0.211,0.26,0.444,0.309,0.7    c0.049,0.255,0.054,0.538,0.012,0.84c-0.042,0.305-0.161,0.68-0.357,1.125c-0.231,0.525-0.478,0.917-0.739,1.174    s-0.549,0.405-0.863,0.448c-0.314,0.041-0.652-0.039-1.011-0.244c-0.475-0.27-0.779-0.635-0.914-1.101    C38.935,28.772,39.04,28.07,39.412,27.229z M40.033,27.582c-0.325,0.734-0.446,1.28-0.364,1.632    c0.082,0.35,0.261,0.605,0.539,0.765c0.277,0.156,0.565,0.166,0.862,0.029c0.297-0.139,0.608-0.575,0.931-1.31    c0.326-0.739,0.447-1.283,0.365-1.635c-0.083-0.349-0.265-0.604-0.547-0.764c-0.278-0.158-0.547-0.178-0.807-0.057    C40.684,26.398,40.357,26.845,40.033,27.582z"
             fill="#FFFFFF"
             id="path385" />
          <path
             d="M42.598,31.804l0.276-0.627l0.688,0.393l-0.275,0.626L42.598,31.804z M43.754,29.181l0.276-0.628    l0.689,0.391l-0.276,0.628L43.754,29.181z"
             fill="#FFFFFF"
             id="path387" />
          <path
             d="M46.451,33.991l-0.604-0.342l1.546-3.513c-0.201,0.043-0.448,0.061-0.74,0.055    c-0.292-0.008-0.546-0.033-0.762-0.076l0.235-0.535c0.402,0.047,0.775,0.039,1.119-0.022c0.344-0.062,0.611-0.16,0.802-0.295    l0.39,0.221L46.451,33.991z"
             fill="#FFFFFF"
             id="path389" />
          <path
             d="M48.518,33.693l0.656,0.312c-0.078,0.309-0.062,0.582,0.047,0.822c0.108,0.239,0.284,0.426,0.526,0.563    c0.292,0.166,0.582,0.206,0.871,0.12c0.29-0.086,0.508-0.294,0.653-0.625c0.139-0.316,0.151-0.617,0.037-0.908    c-0.113-0.292-0.327-0.527-0.641-0.704c-0.195-0.111-0.389-0.171-0.581-0.179c-0.192-0.009-0.361,0.026-0.507,0.103l-0.539-0.388    l1.493-2.037l2.449,1.393l-0.233,0.526l-1.964-1.114l-0.797,1.054c0.378-0.02,0.73,0.062,1.054,0.246    c0.431,0.244,0.733,0.587,0.91,1.026c0.176,0.438,0.17,0.872-0.018,1.3c-0.179,0.404-0.464,0.683-0.853,0.831    c-0.476,0.184-0.987,0.121-1.534-0.189c-0.448-0.255-0.762-0.577-0.944-0.966C48.42,34.489,48.392,34.095,48.518,33.693z"
             fill="#FFFFFF"
             id="path391" />
        </g>
      </g>
    </symbol>
  </defs>
  <g
     transform="translate(589.0,67.0) rotate(0 36.0 50.0)"
     id="g393">
    <use
       xlink:href="#com.gliffy.newnetwork.home.iPhone"
       width="72.0"
       height="100.0"
       fill="#003366"
       id="use395" />
    <g
       id="g397" />
  </g>
  <g
     transform="translate(451.0,145.0)"
     id="g399">
    <path
       d="M3.0,0.0 L69.0,0.0 L69.0,-28.0 L135.0,-28.0 "
       stroke-dasharray="6, 12"
       fill="none"
       stroke="#000000"
       stroke-width="2"
       id="path401" />
    <g
       transform="translate(0.0,0.0) rotate(0.0)"
       id="g403">
      <path
         d="M9.0,-5.0 L2.0,0 L9.0,5.0 M0,0z"
         fill="none"
         stroke="#000000"
         stroke-width="2.0"
         id="path405" />
    </g>
    <g
       transform="translate(138.0,-28.0) rotate(180.0)"
       id="g407">
      <path
         d="M9.0,-5.0 L2.0,0 L9.0,5.0 M0,0z"
         fill="none"
         stroke="#000000"
         stroke-width="2.0"
         id="path409" />
    </g>
  </g>
  <g
     transform="translate(451.0,160.0)"
     id="g411">
    <path
       d="M3.0,0.0 L58.0,0.0 L58.0,94.0 L113.0,94.0 "
       stroke-dasharray="6, 12"
       fill="none"
       stroke="#000000"
       stroke-width="2"
       id="path413" />
    <g
       transform="translate(0.0,0.0) rotate(0.0)"
       id="g415">
      <path
         d="M9.0,-5.0 L2.0,0 L9.0,5.0 M0,0z"
         fill="none"
         stroke="#000000"
         stroke-width="2.0"
         id="path417" />
    </g>
    <g
       transform="translate(116.0,94.0) rotate(180.0)"
       id="g419">
      <path
         d="M9.0,-5.0 L2.0,0 L9.0,5.0 M0,0z"
         fill="none"
         stroke="#000000"
         stroke-width="2.0"
         id="path421" />
    </g>
  </g>
  <g
     transform="translate(452.0,137.5) rotate(0 75.0 17.5)"
     id="g423">
    <g
       transform="translate(0.0,22.5)"
       id="g425">
      <text
         x="75.0"
         style="text-anchor: middle"
         y="-2.0"
         id="text427">
        <tspan
           xml:space="preserve"
           font-size="12"
           font-family="Arial"
           fill="#000000"
           id="tspan429">HTTP</tspan>      </text>
    </g>
  </g>
  <g
     transform="translate(10.0,31.5) rotate(0 75.0 12.5)"
     id="g431">
    <g
       transform="translate(0.0,17.5)"
       id="g433">
      <text
         x="75.0"
         style="text-anchor: middle"
         y="-2.0"
         id="text435">
        <tspan
           xml:space="preserve"
           font-size="13"
           font-family="Arial"
           fill="#000000"
           font-weight="bold"
           id="tspan437">Base Station</tspan>      </text>
    </g>
  </g>
  <g
     transform="translate(203.0,271.25) rotate(0 44.0 23.75)"
     id="g439">
    <defs
       id="defs441">
      <linearGradient
         id="g14"
         x1="50%"
         y1="-25%"
         x2="50%"
         y2="100%">
        <stop
           stop-color="white"
           offset="0%"
           id="stop444" />
        <stop
           stop-color="#663366"
           offset="100%"
           id="stop446" />
      </linearGradient>
    </defs>
    <g
       transform="translate(4.0,4.0)"
       id="g448">
      <rect
         width="88.0"
         height="47.5"
         stroke="#A8A8A8"
         stroke-width="0"
         stroke-opacity=".6"
         fill-opacity=".6"
         fill="#A8A8A8"
         id="rect450" />
    </g>
    <rect
       width="88.0"
       height="47.5"
       stroke="#333333"
       stroke-width="2"
       style="fill:url(#g14)"
       id="rect452" />
    <g
       transform="translate(0.0,28.75)"
       id="g454">
      <text
         x="44.0"
         style="text-anchor: middle"
         y="-2.0"
         id="text456">
        <tspan
           xml:space="preserve"
           font-size="13"
           font-family="Arial"
           fill="#000000"
           id="tspan458">Web Server</tspan>      </text>
    </g>
  </g>
</svg>
