<?xml version="1.0" encoding="UTF-8" standalone="no"?>
<svg
   xmlns:dc="http://purl.org/dc/elements/1.1/"
   xmlns:cc="http://creativecommons.org/ns#"
   xmlns:rdf="http://www.w3.org/1999/02/22-rdf-syntax-ns#"
   xmlns:svg="http://www.w3.org/2000/svg"
   xmlns="http://www.w3.org/2000/svg"
   xmlns:sodipodi="http://sodipodi.sourceforge.net/DTD/sodipodi-0.dtd"
   xmlns:inkscape="http://www.inkscape.org/namespaces/inkscape"
   version="1.1"
   viewBox="0 0 657.75 319.75"
   stroke-miterlimit="10"
   id="svg4812"
   inkscape:version="0.48.3.1 r9886"
   width="100%"
   height="100%"
   sodipodi:docname="Dummy LaTeX figure.svg"
   style="fill:none;stroke:none">
  <metadata
     id="metadata4833">
    <rdf:RDF>
      <cc:Work
         rdf:about="">
        <dc:format>image/svg+xml</dc:format>
        <dc:type
           rdf:resource="http://purl.org/dc/dcmitype/StillImage" />
        <dc:title></dc:title>
      </cc:Work>
    </rdf:RDF>
  </metadata>
  <defs
     id="defs4831" />
  <sodipodi:namedview
     pagecolor="#ffffff"
     bordercolor="#666666"
     borderopacity="1"
     objecttolerance="10"
     gridtolerance="10"
     guidetolerance="10"
     inkscape:pageopacity="0"
     inkscape:pageshadow="2"
     inkscape:window-width="640"
     inkscape:window-height="480"
     id="namedview4829"
     showgrid="false"
     fit-margin-left="5"
     fit-margin-top="5"
     fit-margin-bottom="5"
     fit-margin-right="5"
     inkscape:zoom="0.32777778"
     inkscape:cx="295.5"
     inkscape:cy="162.8125"
     inkscape:window-x="0"
     inkscape:window-y="29"
     inkscape:window-maximized="0"
     inkscape:current-layer="g4817" />
  <clipPath
     id="p.0">
    <path
       d="M 0,0 960,0 960,720 0,720 0,0 z"
       clip-rule="nonzero"
       id="path4815"
       inkscape:connector-curvature="0" />
  </clipPath>
  <g
     clip-path="url(#p.0)"
     id="g4817"
     transform="translate(-184.5,-203.0625)">
    <path
       d="m 0,0 960,0 0,720 -960,0 z"
       id="path4819"
       inkscape:connector-curvature="0"
       style="fill:#000000;fill-opacity:0;fill-rule:nonzero" />
    <path
       d="m 190.50131,209.06299 645.7638,0 0,307.74805 -645.7638,0 z"
       id="path4821"
       inkscape:connector-curvature="0"
       style="fill:#000000;fill-opacity:0;fill-rule:nonzero" />
    <path
       d="m 190.50131,209.06299 645.7638,0 0,307.74805 -645.7638,0 z"
       id="path4823"
       inkscape:connector-curvature="0"
       style="stroke:#000000;stroke-width:2;stroke-linecap:butt;stroke-linejoin:round;stroke-dasharray:8, 6" />
    <path
       d="m 368.60587,353.15576 0,-28.64063 10.79687,0 q 2.84375,0 4.35938,0.28125 2.10937,0.34375 3.53125,1.34375 1.42187,0.98438 2.28125,2.76563 0.875,1.76562 0.875,3.89062 0,3.65625 -2.32813,6.1875 -2.3125,2.53125 -8.39062,2.53125 l -7.34375,0 0,11.64063 -3.78125,0 z m 3.78125,-15.01563 7.40625,0 q 3.67187,0 5.20312,-1.35937 1.54688,-1.375 1.54688,-3.85938 0,-1.79687 -0.90625,-3.07812 -0.90625,-1.28125 -2.39063,-1.6875 -0.95312,-0.25 -3.53125,-0.25 l -7.32812,0 0,10.23437 z m 22.36719,15.01563 0,-28.64063 3.51562,0 0,28.64063 -3.51562,0 z m 23.16797,-6.6875 3.625,0.45312 q -0.85938,3.1875 -3.1875,4.95313 -2.3125,1.75 -5.9375,1.75 -4.54688,0 -7.21875,-2.79688 -2.65625,-2.8125 -2.65625,-7.875 0,-5.23437 2.6875,-8.125 2.70312,-2.89062 7,-2.89062 4.15625,0 6.79687,2.84375 2.64063,2.82812 2.64063,7.96875 0,0.3125 -0.0313,0.9375 l -15.46875,0 q 0.20312,3.40625 1.9375,5.23437 1.73437,1.8125 4.34375,1.8125 1.92187,0 3.28125,-1.01562 1.375,-1.01563 2.1875,-3.25 z m -11.54688,-5.67188 11.57813,0 q -0.23438,-2.625 -1.32813,-3.9375 -1.67187,-2.03125 -4.35937,-2.03125 -2.42188,0 -4.07813,1.625 -1.64062,1.625 -1.8125,4.34375 z m 33.1211,9.79688 q -1.95313,1.65625 -3.76563,2.34375 -1.79687,0.6875 -3.875,0.6875 -3.40625,0 -5.25,-1.67188 -1.82812,-1.67187 -1.82812,-4.26562 0,-1.53125 0.6875,-2.78125 0.6875,-1.26563 1.8125,-2.01563 1.125,-0.76562 2.53125,-1.15625 1.03125,-0.28125 3.125,-0.53125 4.26562,-0.51562 6.26562,-1.21875 0.0313,-0.71875 0.0313,-0.90625 0,-2.15625 -1,-3.03125 -1.34375,-1.1875 -4,-1.1875 -2.48437,0 -3.67187,0.875 -1.17188,0.85938 -1.75,3.0625 l -3.4375,-0.46875 q 0.46875,-2.20312 1.54687,-3.5625 1.07813,-1.35937 3.10938,-2.09375 2.03125,-0.73437 4.70312,-0.73437 2.65625,0 4.3125,0.625 1.67188,0.625 2.45313,1.57812 0.78125,0.95313 1.09375,2.39063 0.17187,0.90625 0.17187,3.25 l 0,4.6875 q 0,4.89062 0.21875,6.20312 0.23438,1.29688 0.89063,2.48438 l -3.67188,0 q -0.54687,-1.09375 -0.70312,-2.5625 z m -0.29688,-7.84375 q -1.90625,0.78125 -5.73437,1.32812 -2.17188,0.3125 -3.07813,0.70313 -0.89062,0.39062 -1.375,1.14062 -0.48437,0.75 -0.48437,1.67188 0,1.40625 1.0625,2.34375 1.0625,0.9375 3.10937,0.9375 2.03125,0 3.60938,-0.89063 1.59375,-0.89062 2.32812,-2.4375 0.5625,-1.1875 0.5625,-3.51562 l 0,-1.28125 z m 7.60547,4.21875 3.46875,-0.54688 q 0.29687,2.07813 1.625,3.20313 1.34375,1.10937 3.75,1.10937 2.42187,0 3.59375,-0.98437 1.17187,-0.98438 1.17187,-2.3125 0,-1.20313 -1.03125,-1.875 -0.71875,-0.46875 -3.59375,-1.20313 -3.875,-0.96875 -5.375,-1.67187 -1.48437,-0.71875 -2.26562,-1.98438 -0.76563,-1.26562 -0.76563,-2.78125 0,-1.39062 0.64063,-2.5625 0.64062,-1.1875 1.73437,-1.96875 0.8125,-0.60937 2.21875,-1.03125 1.42188,-0.42187 3.04688,-0.42187 2.4375,0 4.28125,0.70312 1.85937,0.70313 2.73437,1.90625 0.875,1.20313 1.20313,3.21875 l -3.4375,0.46875 q -0.23438,-1.60937 -1.35938,-2.5 -1.10937,-0.90625 -3.17187,-0.90625 -2.42188,0 -3.45313,0.8125 -1.03125,0.79688 -1.03125,1.875 0,0.67188 0.42188,1.21875 0.4375,0.57813 1.35937,0.9375 0.51563,0.20313 3.09375,0.90625 3.73438,1 5.20313,1.64063 1.48437,0.625 2.3125,1.84375 0.84375,1.20312 0.84375,3 0,1.75 -1.03125,3.3125 -1.01563,1.54687 -2.95313,2.40625 -1.92187,0.84375 -4.375,0.84375 -4.03125,0 -6.15625,-1.67188 -2.125,-1.6875 -2.70312,-4.98437 z m 35.60937,-0.5 3.625,0.45312 q -0.85937,3.1875 -3.1875,4.95313 -2.3125,1.75 -5.9375,1.75 -4.54687,0 -7.21875,-2.79688 -2.65625,-2.8125 -2.65625,-7.875 0,-5.23437 2.6875,-8.125 2.70313,-2.89062 7,-2.89062 4.15625,0 6.79688,2.84375 2.64062,2.82812 2.64062,7.96875 0,0.3125 -0.0313,0.9375 l -15.46875,0 q 0.20313,3.40625 1.9375,5.23437 1.73438,1.8125 4.34375,1.8125 1.92188,0 3.28125,-1.01562 1.375,-1.01563 2.1875,-3.25 z m -11.54687,-5.67188 11.57812,0 q -0.23437,-2.625 -1.32812,-3.9375 -1.67188,-2.03125 -4.35938,-2.03125 -2.42187,0 -4.07812,1.625 -1.64063,1.625 -1.8125,4.34375 z m 29.29687,6.17188 3.46875,-0.54688 q 0.29688,2.07813 1.625,3.20313 1.34375,1.10937 3.75,1.10937 2.42188,0 3.59379,-0.98437 1.17187,-0.98438 1.17187,-2.3125 0,-1.20313 -1.03125,-1.875 -0.71875,-0.46875 -3.59378,-1.20313 -3.875,-0.96875 -5.375,-1.67187 -1.48438,-0.71875 -2.26563,-1.98438 -0.76562,-1.26562 -0.76562,-2.78125 0,-1.39062 0.64062,-2.5625 0.64063,-1.1875 1.73438,-1.96875 0.8125,-0.60937 2.21875,-1.03125 1.42187,-0.42187 3.04687,-0.42187 2.4375,0 4.28129,0.70312 1.85937,0.70313 2.73437,1.90625 0.875,1.20313 1.20313,3.21875 l -3.4375,0.46875 q -0.23438,-1.60937 -1.35941,-2.5 -1.10938,-0.90625 -3.17188,-0.90625 -2.42187,0 -3.45312,0.8125 -1.03125,0.79688 -1.03125,1.875 0,0.67188 0.42187,1.21875 0.4375,0.57813 1.35938,0.9375 0.51562,0.20313 3.09375,0.90625 3.73441,1 5.20316,1.64063 1.48437,0.625 2.3125,1.84375 0.84375,1.20312 0.84375,3 0,1.75 -1.03125,3.3125 -1.01563,1.54687 -2.95313,2.40625 -1.92191,0.84375 -4.37503,0.84375 -4.03125,0 -6.15625,-1.67188 -2.125,-1.6875 -2.70313,-4.98437 z m 29.07816,3.04687 0.51563,3.09375 q -1.48438,0.32813 -2.65625,0.32813 -1.92188,0 -2.98438,-0.60938 -1.04687,-0.60937 -1.48437,-1.59375 -0.42188,-0.98437 -0.42188,-4.15625 l 0,-11.9375 -2.57812,0 0,-2.73437 2.57812,0 0,-5.125 3.5,-2.10938 0,7.23438 3.53125,0 0,2.73437 -3.53125,0 0,12.14063 q 0,1.5 0.1875,1.9375 0.1875,0.42187 0.59375,0.67187 0.42188,0.25 1.20313,0.25 0.59375,0 1.54687,-0.125 z m 16.97266,0.57813 q -1.95313,1.65625 -3.76563,2.34375 -1.79687,0.6875 -3.875,0.6875 -3.40625,0 -5.25,-1.67188 -1.82812,-1.67187 -1.82812,-4.26562 0,-1.53125 0.6875,-2.78125 0.6875,-1.26563 1.8125,-2.01563 1.125,-0.76562 2.53125,-1.15625 1.03125,-0.28125 3.125,-0.53125 4.26562,-0.51562 6.26562,-1.21875 0.0313,-0.71875 0.0313,-0.90625 0,-2.15625 -1,-3.03125 -1.34375,-1.1875 -4,-1.1875 -2.48437,0 -3.67187,0.875 -1.17188,0.85938 -1.75,3.0625 l -3.4375,-0.46875 q 0.46875,-2.20312 1.54687,-3.5625 1.07813,-1.35937 3.10938,-2.09375 2.03125,-0.73437 4.70312,-0.73437 2.65625,0 4.3125,0.625 1.67188,0.625 2.45313,1.57812 0.78125,0.95313 1.09375,2.39063 0.17187,0.90625 0.17187,3.25 l 0,4.6875 q 0,4.89062 0.21875,6.20312 0.23438,1.29688 0.89063,2.48438 l -3.67188,0 q -0.54687,-1.09375 -0.70312,-2.5625 z m -0.29688,-7.84375 q -1.90625,0.78125 -5.73437,1.32812 -2.17188,0.3125 -3.07813,0.70313 -0.89062,0.39062 -1.375,1.14062 -0.48437,0.75 -0.48437,1.67188 0,1.40625 1.0625,2.34375 1.0625,0.9375 3.10937,0.9375 2.03125,0 3.60938,-0.89063 1.59375,-0.89062 2.32812,-2.4375 0.5625,-1.1875 0.5625,-3.51562 l 0,-1.28125 z m 9.01172,10.40625 0,-20.75 3.15625,0 0,2.95312 q 2.29688,-3.42187 6.60938,-3.42187 1.875,0 3.4375,0.6875 1.57812,0.67187 2.35937,1.76562 0.78125,1.09375 1.09375,2.59375 0.20313,0.96875 0.20313,3.42188 l 0,12.75 -3.51563,0 0,-12.625 q 0,-2.14063 -0.42187,-3.20313 -0.40625,-1.0625 -1.45313,-1.70312 -1.04687,-0.64063 -2.45312,-0.64063 -2.23438,0 -3.875,1.4375 -1.625,1.42188 -1.625,5.40625 l 0,11.32813 -3.51563,0 z m 35.69922,0 0,-2.625 q -1.96875,3.09375 -5.79687,3.09375 -2.48438,0 -4.5625,-1.35938 -2.07813,-1.375 -3.21875,-3.82812 -1.14063,-2.45313 -1.14063,-5.64063 0,-3.09375 1.03125,-5.625 1.03125,-2.53125 3.09375,-3.875 2.07813,-1.35937 4.64063,-1.35937 1.875,0 3.32812,0.79687 1.46875,0.79688 2.39063,2.0625 l 0,-10.28125 3.5,0 0,28.64063 -3.26563,0 z m -11.10937,-10.35938 q 0,3.98438 1.67187,5.96875 1.6875,1.96875 3.96875,1.96875 2.3125,0 3.92188,-1.875 1.60937,-1.89062 1.60937,-5.76562 0,-4.25 -1.64062,-6.23438 -1.64063,-2 -4.04688,-2 -2.34375,0 -3.92187,1.92188 -1.5625,1.90625 -1.5625,6.01562 z m 34.25,10.35938 -3.25,0 0,-28.64063 3.51562,0 0,10.21875 q 2.21875,-2.79687 5.67188,-2.79687 1.92187,0 3.625,0.78125 1.71875,0.76562 2.8125,2.17187 1.10937,1.39063 1.73437,3.35938 0.625,1.96875 0.625,4.21875 0,5.32812 -2.64062,8.25 -2.64063,2.90625 -6.32813,2.90625 -3.67187,0 -5.76562,-3.0625 l 0,2.59375 z m -0.0313,-10.53125 q 0,3.73437 1.01562,5.39062 1.65625,2.71875 4.48438,2.71875 2.3125,0 3.98437,-2 1.6875,-2 1.6875,-5.96875 0,-4.0625 -1.60937,-6 -1.60938,-1.9375 -3.90625,-1.9375 -2.29688,0 -3.98438,2.01563 -1.67187,2 -1.67187,5.78125 z m 18.88671,18.51562 -0.39062,-3.29687 q 1.15625,0.3125 2.01562,0.3125 1.17188,0 1.875,-0.39063 0.70313,-0.39062 1.14063,-1.09375 0.34375,-0.53125 1.07812,-2.60937 0.0937,-0.29688 0.3125,-0.85938 l -7.875,-20.79687 3.79688,0 4.3125,12.01562 q 0.84375,2.28125 1.5,4.8125 0.60937,-2.42187 1.45312,-4.73437 l 4.4375,-12.09375 3.51563,0 -7.89063,21.10937 q -1.28125,3.40625 -1.98437,4.70313 -0.9375,1.73437 -2.15625,2.54687 -1.20313,0.8125 -2.875,0.8125 -1.01563,0 -2.26563,-0.4375 z m 21.15625,-7.98437 0,-4 4,0 0,4 -4,0 z"
       id="path4825"
       inkscape:connector-curvature="0"
       style="fill:#000000;fill-rule:nonzero" />
    <path
       d="m 413.5004,389.1089 3.79688,0.96875 q -1.20313,4.65625 -4.29688,7.10937 -3.09375,2.45313 -7.5625,2.45313 -4.625,0 -7.53125,-1.875 -2.90625,-1.89063 -4.42187,-5.46875 -1.5,-3.57813 -1.5,-7.67188 0,-4.46875 1.70312,-7.79687 1.70313,-3.34375 4.85938,-5.0625 3.15625,-1.73438 6.95312,-1.73438 4.29688,0 7.21875,2.1875 2.9375,2.1875 4.07813,6.15625 l -3.71875,0.875 q -1,-3.125 -2.90625,-4.54687 -1.89063,-1.42188 -4.75,-1.42188 -3.3125,0 -5.53125,1.57813 -2.20313,1.57812 -3.10938,4.25 -0.89062,2.65625 -0.89062,5.5 0,3.64062 1.0625,6.375 1.0625,2.71875 3.29687,4.07812 2.25,1.34375 4.875,1.34375 3.1875,0 5.39063,-1.82812 2.20312,-1.84375 2.98437,-5.46875 z m 6.69922,-0.32813 q 0,-5.76562 3.20312,-8.53125 2.67188,-2.3125 6.53125,-2.3125 4.26563,0 6.98438,2.8125 2.71875,2.79688 2.71875,7.73438 0,4.01562 -1.20313,6.3125 -1.20312,2.28125 -3.5,3.5625 -2.29687,1.26562 -5,1.26562 -4.35937,0 -7.04687,-2.79687 -2.6875,-2.79688 -2.6875,-8.04688 z m 3.60937,0 q 0,3.98438 1.73438,5.96875 1.75,1.98438 4.39062,1.98438 2.60938,0 4.34375,-1.98438 1.75,-2 1.75,-6.07812 0,-3.85938 -1.75,-5.82813 -1.75,-1.98437 -4.34375,-1.98437 -2.64062,0 -4.39062,1.96875 -1.73438,1.96875 -1.73438,5.95312 z m 19.94922,10.375 0,-20.75 3.14063,0 0,2.92188 q 0.98437,-1.53125 2.59375,-2.45313 1.625,-0.9375 3.70312,-0.9375 2.29688,0 3.76563,0.96875 1.48437,0.95313 2.09375,2.67188 2.45312,-3.64063 6.40625,-3.64063 3.07812,0 4.73437,1.71875 1.67188,1.70313 1.67188,5.26563 l 0,14.23437 -3.5,0 0,-13.0625 q 0,-2.10937 -0.34375,-3.03125 -0.34375,-0.9375 -1.25,-1.5 -0.89063,-0.57812 -2.09375,-0.57812 -2.1875,0 -3.64063,1.46875 -1.4375,1.45312 -1.4375,4.65625 l 0,12.04687 -3.51562,0 0,-13.48437 q 0,-2.34375 -0.85938,-3.51563 -0.85937,-1.17187 -2.8125,-1.17187 -1.48437,0 -2.75,0.78125 -1.26562,0.78125 -1.82812,2.29687 -0.5625,1.5 -0.5625,4.32813 l 0,10.76562 -3.51563,0 z m 33.33594,-24.59375 0,-4.04687 3.51563,0 0,4.04687 -3.51563,0 z m 0,24.59375 0,-20.75 3.51563,0 0,20.75 -3.51563,0 z m 8.87109,0 0,-20.75 3.15625,0 0,2.95313 q 2.29688,-3.42188 6.60938,-3.42188 1.875,0 3.4375,0.6875 1.57812,0.67188 2.35937,1.76563 0.78125,1.09375 1.09375,2.59375 0.20313,0.96875 0.20313,3.42187 l 0,12.75 -3.51563,0 0,-12.625 q 0,-2.14062 -0.42187,-3.20312 -0.40625,-1.0625 -1.45313,-1.70313 -1.04687,-0.64062 -2.45312,-0.64062 -2.23438,0 -3.875,1.4375 -1.625,1.42187 -1.625,5.40625 l 0,11.32812 -3.51563,0 z m 21.60547,1.71875 3.40625,0.51563 q 0.21875,1.57812 1.20316,2.29687 1.29687,0.98438 3.5625,0.98438 2.45312,0 3.78125,-0.98438 1.32812,-0.96875 1.79687,-2.73437 0.26563,-1.07813 0.25,-4.51563 -2.3125,2.71875 -5.75,2.71875 -4.26565,0 -6.6094,-3.07812 -2.34375,-3.09375 -2.34375,-7.40625 0,-2.96875 1.0625,-5.48438 1.07812,-2.51562 3.10937,-3.875 2.04691,-1.375 4.81253,-1.375 3.67188,0 6.04688,2.96875 l 0,-2.5 3.25,0 0,17.9375 q 0,4.84375 -1,6.85938 -0.98438,2.03125 -3.125,3.20312 -2.125,1.17188 -5.25,1.17188 -3.71875,0 -6.00003,-1.67188 -2.28125,-1.67187 -2.20313,-5.03125 z m 2.90625,-12.46875 q 0,4.09375 1.60941,5.96875 1.625,1.875 4.07812,1.875 2.42188,0 4.0625,-1.85937 1.64063,-1.875 1.64063,-5.85938 0,-3.8125 -1.70313,-5.73437 -1.6875,-1.9375 -4.0625,-1.9375 -2.34375,0 -3.98437,1.90625 -1.64066,1.89062 -1.64066,5.64062 z m 29.68753,4.5625 3.46875,-0.54687 q 0.29688,2.07812 1.625,3.20312 1.34375,1.10938 3.75,1.10938 2.42188,0 3.59375,-0.98438 1.17188,-0.98437 1.17188,-2.3125 0,-1.20312 -1.03125,-1.875 -0.71875,-0.46875 -3.59375,-1.20312 -3.875,-0.96875 -5.375,-1.67188 -1.48438,-0.71875 -2.26563,-1.98437 -0.76562,-1.26563 -0.76562,-2.78125 0,-1.39063 0.64062,-2.5625 0.64063,-1.1875 1.73438,-1.96875 0.8125,-0.60938 2.21875,-1.03125 1.42187,-0.42188 3.04687,-0.42188 2.4375,0 4.28125,0.70313 1.85938,0.70312 2.73438,1.90625 0.875,1.20312 1.20312,3.21875 l -3.4375,0.46875 q -0.23437,-1.60938 -1.35937,-2.5 -1.10938,-0.90625 -3.17188,-0.90625 -2.42187,0 -3.45312,0.8125 -1.03125,0.79687 -1.03125,1.875 0,0.67187 0.42187,1.21875 0.4375,0.57812 1.35938,0.9375 0.51562,0.20312 3.09375,0.90625 3.73437,1 5.20312,1.64062 1.48438,0.625 2.3125,1.84375 0.84375,1.20313 0.84375,3 0,1.75 -1.03125,3.3125 -1.01562,1.54688 -2.95312,2.40625 -1.92188,0.84375 -4.375,0.84375 -4.03125,0 -6.15625,-1.67187 -2.125,-1.6875 -2.70313,-4.98438 z m 20.09375,-4.1875 q 0,-5.76562 3.20313,-8.53125 2.67187,-2.3125 6.53125,-2.3125 4.26562,0 6.98437,2.8125 2.71875,2.79688 2.71875,7.73438 0,4.01562 -1.20312,6.3125 -1.20313,2.28125 -3.5,3.5625 -2.29688,1.26562 -5,1.26562 -4.35938,0 -7.04688,-2.79687 -2.6875,-2.79688 -2.6875,-8.04688 z m 3.60938,0 q 0,3.98438 1.73437,5.96875 1.75,1.98438 4.39063,1.98438 2.60937,0 4.34375,-1.98438 1.75,-2 1.75,-6.07812 0,-3.85938 -1.75,-5.82813 -1.75,-1.98437 -4.34375,-1.98437 -2.64063,0 -4.39063,1.96875 -1.73437,1.96875 -1.73437,5.95312 z m 18.63672,0 q 0,-5.76562 3.20312,-8.53125 2.67188,-2.3125 6.53125,-2.3125 4.26563,0 6.98438,2.8125 2.71875,2.79688 2.71875,7.73438 0,4.01562 -1.20313,6.3125 -1.20312,2.28125 -3.5,3.5625 -2.29687,1.26562 -5,1.26562 -4.35937,0 -7.04687,-2.79687 -2.6875,-2.79688 -2.6875,-8.04688 z m 3.60937,0 q 0,3.98438 1.73438,5.96875 1.75,1.98438 4.39062,1.98438 2.60938,0 4.34375,-1.98438 1.75,-2 1.75,-6.07812 0,-3.85938 -1.75,-5.82813 -1.75,-1.98437 -4.34375,-1.98437 -2.64062,0 -4.39062,1.96875 -1.73438,1.96875 -1.73438,5.95312 z m 19.94922,10.375 0,-20.75 3.15625,0 0,2.95313 q 2.29688,-3.42188 6.60938,-3.42188 1.875,0 3.4375,0.6875 1.57812,0.67188 2.35937,1.76563 0.78125,1.09375 1.09375,2.59375 0.20313,0.96875 0.20313,3.42187 l 0,12.75 -3.51563,0 0,-12.625 q 0,-2.14062 -0.42187,-3.20312 -0.40625,-1.0625 -1.45313,-1.70313 -1.04687,-0.64062 -2.45312,-0.64062 -2.23438,0 -3.875,1.4375 -1.625,1.42187 -1.625,5.40625 l 0,11.32812 -3.51563,0 z m 24.1211,-7.10937 -1.07813,-15.17188 0,-6.35937 4.35938,0 0,6.35937 -1.01563,15.17188 -2.26562,0 z m -0.92188,7.10937 0,-4 4.04688,0 0,4 -4.04688,0 z"
       id="path4827"
       inkscape:connector-curvature="0"
       style="fill:#000000;fill-rule:nonzero" />
  </g>
</svg>
